<svg id="Calque_1" data-name="Calque 1" xmlns="http://www.w3.org/2000/svg" xmlns:xlink="http://www.w3.org/1999/xlink" viewBox="0 0 740.99 472.18"><defs><style>.cls-1{fill:none;}.cls-2{clip-path:url(#clip-path);}.cls-3{font-size:24px;font-family:QuicksandBook-Regular, Quicksand;}</style><clipPath id="clip-path" transform="translate(10.99 -49.94)"><path id="SVGID" class="cls-1" d="M-1,0S75,194,277,159s197,69,227,199S749,491,749,491V1Z"/></clipPath></defs><title>degrade1</title><text class="cls-3" transform="matrix(0.99, -0.16, 0.16, 0.99, 321.08, 134.27)">B</text><text class="cls-3" transform="matrix(0.99, -0.13, 0.13, 0.99, 336.2, 131.73)">e</text><text class="cls-3" transform="translate(351.71 129.86) rotate(-4.55)"> </text><text class="cls-3" transform="translate(359.96 129.22) rotate(-2.41)">i</text><text class="cls-3" transform="translate(367.64 128.79) rotate(1.24)">n</text><text class="cls-3" transform="matrix(0.99, 0.1, -0.1, 0.99, 383.22, 129.3)"> </text><text class="cls-3" transform="matrix(0.98, 0.2, -0.2, 0.98, 391.23, 129.91)">p</text><text class="cls-3" transform="translate(407.05 133.21) rotate(21.11)">e</text><text class="cls-3" transform="matrix(0.85, 0.53, -0.53, 0.85, 421.12, 138.64)">a</text><text class="cls-3" transform="translate(433.99 146.9) rotate(43.88)">c</text><text class="cls-3" transform="matrix(0.58, 0.81, -0.81, 0.58, 443.97, 156.49)">e</text><text class="cls-3" transform="translate(452.67 169.11) rotate(61.34)"> </text><text class="cls-3" transform="translate(456.77 175.93) rotate(68.23)">w</text><text class="cls-3" transform="translate(463.95 194.68) rotate(72.72)">i</text><text class="cls-3" transform="matrix(0.26, 0.97, -0.97, 0.26, 466.26, 202.09)">t</text><text class="cls-3" transform="matrix(0.22, 0.98, -0.98, 0.22, 468.9, 211.92)">h</text><text class="cls-3" transform="matrix(0.19, 0.98, -0.98, 0.19, 472.24, 227.36)"> </text><text class="cls-3" transform="translate(473.82 235.52) rotate(80.06)">y</text><text class="cls-3" transform="translate(476.32 249.87) rotate(80.58)">o</text><text class="cls-3" transform="translate(478.89 265.47) rotate(80.42)">u</text><text class="cls-3" transform="matrix(0.18, 0.98, -0.98, 0.18, 481.54, 281.11)">r</text><text class="cls-3" transform="matrix(0.2, 0.98, -0.98, 0.2, 483.62, 292.59)">s</text><text class="cls-3" transform="matrix(0.22, 0.97, -0.97, 0.22, 486.13, 305.22)">e</text><text class="cls-3" transform="translate(489.82 320.83) rotate(75.23)">l</text><text class="cls-3" transform="translate(491.72 328.04) rotate(73.65)">f</text></svg>