<?xml version="1.0" encoding="utf-8"?>
<!-- Generator: Adobe Illustrator 23.0.2, SVG Export Plug-In . SVG Version: 6.00 Build 0)  -->
<svg version="1.1" id="Calque_1" xmlns="http://www.w3.org/2000/svg" xmlns:xlink="http://www.w3.org/1999/xlink" x="0px" y="0px"
	 viewBox="0 0 383 75" style="enable-background:new 0 0 383 75;" xml:space="preserve">
<style type="text/css">
	.st0{fill:url(#SVGID_1_);}
	.st1{fill:url(#SVGID_2_);}
</style>
<g>
	<polygon points="22.9,11.8 14,11.8 14,60.9 23.3,60.9 23.3,26.7 23.5,26.7 37.6,43.8 38.9,43.8 39,31.1 	"/>
	<path d="M103.2,11.2c5.1,0,9.6,1,13.7,3.1c4.1,2.1,7.3,5.1,9.7,9c2.4,3.9,3.6,8.3,3.6,13c0,4.6-1.2,8.8-3.5,12.7
		c-2.4,3.9-5.6,7-9.7,9.1s-8.7,3.2-13.9,3.2c-5.1,0-9.7-1.1-13.8-3.3c-4.1-2.2-7.4-5.2-9.7-9.1c-2.3-3.8-3.5-8.1-3.5-12.7
		c0-4.5,1.2-8.7,3.5-12.7c2.3-3.9,5.5-7,9.6-9.2S97.9,11.2,103.2,11.2z M85.9,36.4c0,3.2,0.7,6.2,2.2,8.8c1.5,2.6,3.5,4.6,6.2,6
		s5.6,2.1,8.9,2.1c5,0,9.2-1.6,12.4-4.7c3.2-3.2,4.9-7.2,4.9-12.2c0-3.2-0.7-6.2-2.2-8.8c-1.5-2.6-3.5-4.6-6.2-6
		c-2.7-1.4-5.6-2.1-9-2.1s-6.3,0.7-9,2.2s-4.7,3.4-6.1,6C86.6,30.2,85.9,33.1,85.9,36.4z"/>
	<path d="M168,11.2c5.1,0,9.6,1,13.7,3.1c4.1,2.1,7.3,5.1,9.7,9c2.4,3.9,3.6,8.3,3.6,13c0,4.6-1.2,8.8-3.5,12.7
		c-2.4,3.9-5.6,7-9.7,9.1c-4.1,2.2-8.7,3.2-13.9,3.2c-5.1,0-9.7-1.1-13.8-3.3s-7.4-5.2-9.7-9.1S141,41,141,36.4
		c0-4.5,1.2-8.7,3.5-12.7s5.5-7,9.6-9.2S162.8,11.2,168,11.2z M150.7,36.4c0,3.2,0.7,6.2,2.2,8.8c1.5,2.6,3.5,4.6,6.2,6
		s5.6,2.1,8.9,2.1c5,0,9.2-1.6,12.4-4.7c3.2-3.2,4.9-7.2,4.9-12.2c0-3.2-0.7-6.2-2.2-8.8c-1.5-2.6-3.5-4.6-6.2-6
		c-2.7-1.4-5.6-2.1-9-2.1s-6.3,0.7-9,2.2s-4.7,3.4-6.1,6S150.7,33.1,150.7,36.4z"/>
	<path d="M228.4,11.8c5.1,0,9.7,1,13.7,3.1s7.1,5,9.3,8.8c2.2,3.8,3.3,8,3.3,12.7c0,4.8-1.1,9.1-3.3,12.8c-2.2,3.7-5.4,6.6-9.4,8.6
		s-8.8,3.1-14,3.1h-20V11.8H228.4z M227.1,53.1c5.2,0,9.4-1.6,12.5-4.7c3.1-3.1,4.7-7.3,4.7-12.4c0-5.3-1.6-9.5-4.7-12.5
		c-3.2-3.1-7.4-4.6-12.8-4.6h-9.7v34.2L227.1,53.1L227.1,53.1z"/>
	
		<linearGradient id="SVGID_1_" gradientUnits="userSpaceOnUse" x1="206.7152" y1="2332.1194" x2="183.1088" y2="2291.2319" gradientTransform="matrix(1 0 0 -1 77.4 2348.04)">
		<stop  offset="0" style="stop-color:#F8F2A5"/>
		<stop  offset="0.3242" style="stop-color:#F3D9B5"/>
		<stop  offset="1" style="stop-color:#F18999"/>
	</linearGradient>
	<path class="st0" d="M276.9,11.8v49.2h-9.3V11.8H276.9z"/>
	<path d="M323.3,11.8v7.1h-20.7v12.8h20.7v7.8h-20.7v21.4h-9.3V11.8L323.3,11.8L323.3,11.8z"/>
	<path d="M342.7,11.8l11.6,16.4L366,11.8h11l-18.1,24.8v24.4h-9.3V36.5l-18.2-24.7H342.7z"/>
	
		<linearGradient id="SVGID_2_" gradientUnits="userSpaceOnUse" x1="-7.0603" y1="2332.1194" x2="-30.6666" y2="2291.2319" gradientTransform="matrix(1 0 0 -1 77.4 2348.04)">
		<stop  offset="0" style="stop-color:#F8F2A5"/>
		<stop  offset="0.3242" style="stop-color:#F3D9B5"/>
		<stop  offset="1" style="stop-color:#F18999"/>
	</linearGradient>
	<rect x="53.9" y="11.8" class="st1" width="9.3" height="49.2"/>
</g>
</svg>
